<?xml version="1.0" encoding="UTF-8" standalone="no"?>
<svg
   xmlns:dc="http://purl.org/dc/elements/1.1/"
   xmlns:cc="http://creativecommons.org/ns#"
   xmlns:rdf="http://www.w3.org/1999/02/22-rdf-syntax-ns#"
   xmlns="http://www.w3.org/2000/svg"
   xmlns:sodipodi="http://sodipodi.sourceforge.net/DTD/sodipodi-0.dtd"
   xmlns:inkscape="http://www.inkscape.org/namespaces/inkscape"
   version="1.1"
   id="Your_Icon"
   x="0px"
   y="0px"
   width="100px"
   height="100px"
   viewBox="0 0 100 100"
   enable-background="new 0 0 100 100"
   xml:space="preserve"
   inkscape:version="0.48.4 r9939"
   sodipodi:docname="Fish_icon_grey.svg"><metadata
   id="metadata9"><rdf:RDF><cc:Work
       rdf:about=""><dc:format>image/svg+xml</dc:format><dc:type
         rdf:resource="http://purl.org/dc/dcmitype/StillImage" /></cc:Work></rdf:RDF></metadata><defs
   id="defs7"><inkscape:path-effect
     effect="spiro"
     id="path-effect2985"
     is_visible="true" /></defs><sodipodi:namedview
   pagecolor="#ffffff"
   bordercolor="#666666"
   borderopacity="1"
   objecttolerance="10"
   gridtolerance="10"
   guidetolerance="10"
   inkscape:pageopacity="0"
   inkscape:pageshadow="2"
   inkscape:window-width="1680"
   inkscape:window-height="1028"
   id="namedview5"
   showgrid="false"
   inkscape:zoom="6.675088"
   inkscape:cx="80.376706"
   inkscape:cy="60.475164"
   inkscape:window-x="-8"
   inkscape:window-y="-8"
   inkscape:window-maximized="1"
   inkscape:current-layer="Your_Icon" />
<path
   d="m 96.806,50.581 c -0.775,0.021 -1.511,0.322 -2.283,0.202 -0.016,-0.053 -0.03,-0.151 -0.038,-0.202 0.666,-0.302 1.403,-0.49 2.011,-0.925 0.325,-0.316 0.792,-0.691 0.573,-1.209 -0.242,-1.068 -1.218,-1.729 -2.06,-2.307 -1.007,-0.707 -2.14,-1.173 -3.214,-1.735 -1.18,-0.504 -2.771,-2.356 -18.807,-5.387 -5.913,-1.133 -11.902,-1.648 -12.152,-1.836 -5.137355,4.077243 -12.62027,2.620388 -13.08,2.556 -1.03,0.308 -2.109,0.271 -3.156,0.497 -1.72,0.33 -10.451,2.965 -14.923,3.992 -1.585,0.294 -1.557596,0.317653 -3.517397,0.210973 0.899454,4.488319 -0.09382,7.638175 -0.358866,10.048669 C 27.56456,54.681002 28.015,54.802 29.017,55.019 c 0.757,0.166 6.36,1.226 9.716,2.373 2.207,0.173 10.578,3.585 11.368,3.751 9.750965,1.246495 0.32052,0.172244 9.743,1.081 2.756,0.329 5.53,0.044 8.294,0.059 15.207,-0.16 25.758,-8.233 26.728,-8.767 0.812,-0.413 1.678,-0.872 2.166,-1.675 0.39,-0.353 0.255,-1.072 -0.226,-1.26 z m -9.202,-0.479 c -0.896,0 -1.621,-0.727 -1.621,-1.623 0,-0.896 0.725,-1.623 1.621,-1.623 0.897,0 1.624,0.727 1.624,1.623 0.001,0.896 -0.726,1.623 -1.624,1.623 z"
   id="path3"
   style="fill:#637d8e;fill-opacity:1"
   inkscape:connector-curvature="0"
   sodipodi:nodetypes="ccccccccccccccccccccccssscs" />
<path
   style="fill:#000000;fill-opacity:1;stroke:none"
   d="m 86.982426,49.91049 c -0.11971,-0.04848 -0.369975,-0.261632 -0.556144,-0.473667 -0.291121,-0.331569 -0.338488,-0.465393 -0.338488,-0.95633 0,-0.632093 0.282028,-1.089165 0.854816,-1.385365 0.96091,-0.496906 2.216889,0.285457 2.216889,1.380924 0,1.052327 -1.187931,1.835036 -2.177073,1.434438 l 0,0 z"
   id="path3754"
   inkscape:connector-curvature="0" /><path
   style="fill:#6fa692;stroke:#000000;stroke-width:0.01000000000000000;stroke-linecap:butt;stroke-linejoin:miter;stroke-miterlimit:4;stroke-opacity:1;stroke-dasharray:none;fill-opacity:1"
   d="m 47.720987,39.742887 c 2.263329,0.667975 10.160851,0.503966 13.01331,-2.511321 -3.846695,-0.485279 -4.490888,-1.212622 -6.583106,-2.334241 -2.092219,-1.121613 -2.690823,-2.246445 -3.839147,-2.803461 -0.301527,-0.275906 -1.636621,-1.785826 -2.453624,-1.498476 -0.750738,0.324382 -0.645303,3.848121 -0.636856,5.350843 0.0084,1.502722 -0.08816,2.566234 0.499423,3.796656 z"
   id="path2987"
   inkscape:connector-curvature="0"
   sodipodi:nodetypes="cczcczc" /><path
   style="fill:#6f92a6;stroke:#000000;stroke-width:0.01000000000000000;stroke-linecap:butt;stroke-linejoin:miter;stroke-miterlimit:4;stroke-opacity:1;stroke-dasharray:none;fill-opacity:1"
   d="m 50.092973,61.086655 c 2.038637,0.315913 5.859629,0.932672 9.756425,1.142307 -2.002934,1.61584 -4.544815,2.84332 -5.954977,3.89508 -1.410162,1.05176 -1.238708,0.817602 -2.640415,2.228435 -1.401707,1.410833 -1.701051,1.431656 -2.041171,1.292118 -0.340121,-0.139539 -0.505101,-0.315238 -0.730328,-1.198486 -0.225227,-0.883248 0.192136,-2.678896 0.374527,-3.913806 0.182391,-1.23491 0.377062,-1.776568 1.235939,-3.445648 z"
   id="path3763"
   inkscape:connector-curvature="0"
   sodipodi:nodetypes="cczzzzzc" /><path
   style="fill:#6f92a6;stroke:#000000;stroke-width:0.01000000000000000;stroke-linecap:butt;stroke-linejoin:miter;stroke-miterlimit:4;stroke-opacity:1;stroke-dasharray:none;fill-opacity:1"
   d="m 26.165254,44.438559 c 0.652372,3.685378 0.375942,5.220324 -0.317796,10.169492 -1.75306,-0.162061 -3.704475,-0.08528 -6.991526,0.979873 C 15.568881,56.653077 8.2579396,58.807193 5.1112288,59.136652 1.964518,59.466111 3.0568264,59.281328 2.2510593,59.163135 2.6899956,56.529052 4.0885928,55.193816 5.1377119,53.73411 6.186831,52.274404 7.68584,51.180034 7.7330509,49.284958 7.7802618,47.389882 6.0875664,45.211336 5.3495763,43.511652 c -0.7379901,-1.699684 -1.8106371,-3.355938 -1.5625,-5.985169 3.7174168,0.998947 9.3314677,3.362061 13.7447037,5.217161 4.413236,1.855099 7.981102,1.770131 8.633474,1.694915 z"
   id="path3767"
   inkscape:connector-curvature="0"
   sodipodi:nodetypes="ccczczzzczc" /></svg>